<?xml version="1.0" encoding="UTF-8"?>
<svg id="Layer_2" data-name="Layer 2" xmlns="http://www.w3.org/2000/svg" viewBox="0 0 121.48 85.04">
  <defs>
    <style>
      .cls-1 {
        fill: red;
      }

      .cls-1, .cls-2 {
        stroke-width: 0px;
      }

      .cls-2 {
        fill: #fff;
      }
    </style>
  </defs>
  <g id="Layer_1-2" data-name="Layer 1">
    <g>
      <path class="cls-1" d="m118.95,13.28c-1.4-5.23-5.51-9.34-10.74-10.74C98.73,0,60.74,0,60.74,0c0,0-37.99,0-47.46,2.54C8.05,3.94,3.94,8.05,2.54,13.28,0,22.75,0,42.52,0,42.52c0,0,0,19.77,2.54,29.24,1.4,5.23,5.51,9.34,10.74,10.74,9.47,2.54,47.46,2.54,47.46,2.54,0,0,37.99,0,47.46-2.54,5.23-1.4,9.34-5.51,10.74-10.74,2.54-9.47,2.54-29.24,2.54-29.24,0,0,0-19.77-2.54-29.24Z"/>
      <polygon class="cls-2" points="48.59 60.74 80.16 42.52 48.59 24.3 48.59 60.74"/>
    </g>
  </g>
</svg>