<?xml version="1.0" encoding="UTF-8"?>
<svg id="Layer_2" data-name="Layer 2" xmlns="http://www.w3.org/2000/svg" xmlns:xlink="http://www.w3.org/1999/xlink" viewBox="0 0 626.63 111.59">
  <defs>
    <style>
      .cls-1 {
        fill: url(#linear-gradient-2);
      }

      .cls-2 {
        fill: url(#linear-gradient-17);
      }

      .cls-3 {
        fill: url(#linear-gradient-15);
      }

      .cls-4 {
        fill: url(#linear-gradient-18);
      }

      .cls-5 {
        fill: url(#linear-gradient-28);
      }

      .cls-6 {
        fill: url(#linear-gradient-14);
      }

      .cls-7 {
        fill: url(#linear-gradient-20);
      }

      .cls-8 {
        fill: url(#linear-gradient-6);
      }

      .cls-9 {
        fill: url(#linear-gradient-11);
      }

      .cls-10 {
        fill: url(#linear-gradient-10);
      }

      .cls-11 {
        fill: url(#linear-gradient-16);
      }

      .cls-12 {
        fill: url(#linear-gradient-21);
      }

      .cls-13 {
        fill: url(#linear-gradient-25);
      }

      .cls-14 {
        fill: url(#linear-gradient-5);
      }

      .cls-15 {
        fill: url(#linear-gradient-7);
      }

      .cls-16 {
        fill: url(#linear-gradient-24);
      }

      .cls-17 {
        fill: url(#linear-gradient-9);
      }

      .cls-18 {
        fill: url(#linear-gradient-22);
      }

      .cls-19 {
        fill: url(#linear-gradient-3);
      }

      .cls-20 {
        fill: url(#linear-gradient);
      }

      .cls-21 {
        fill: url(#linear-gradient-27);
      }

      .cls-22 {
        fill: url(#linear-gradient-29);
      }

      .cls-23 {
        fill: url(#linear-gradient-23);
      }

      .cls-24 {
        fill: url(#linear-gradient-19);
      }

      .cls-25 {
        fill: url(#linear-gradient-4);
      }

      .cls-26 {
        fill: url(#linear-gradient-8);
      }

      .cls-27 {
        fill: url(#linear-gradient-12);
      }

      .cls-28 {
        fill: url(#linear-gradient-13);
      }

      .cls-29 {
        fill: url(#linear-gradient-26);
      }
    </style>
    <linearGradient id="linear-gradient" x1="160.32" y1="31.66" x2="131.89" y2="3.23" gradientUnits="userSpaceOnUse">
      <stop offset="0" stop-color="#a47a1e"/>
      <stop offset=".11" stop-color="#c3993d"/>
      <stop offset=".16" stop-color="#d3a84c"/>
      <stop offset=".29" stop-color="#ffec94"/>
      <stop offset=".39" stop-color="#f8e089"/>
      <stop offset=".58" stop-color="#e8c26c"/>
      <stop offset=".6" stop-color="#e6be69"/>
      <stop offset=".79" stop-color="#ffd87c"/>
      <stop offset=".95" stop-color="#b58f3e"/>
      <stop offset="1" stop-color="#956d13"/>
    </linearGradient>
    <linearGradient id="linear-gradient-2" x1="183.69" y1="38.02" x2="160" y2="14.33" xlink:href="#linear-gradient"/>
    <linearGradient id="linear-gradient-3" x1="202.39" y1="31.9" x2="179.52" y2="9.02" xlink:href="#linear-gradient"/>
    <linearGradient id="linear-gradient-4" x1="218.68" y1="33.75" x2="194.39" y2="9.46" xlink:href="#linear-gradient"/>
    <linearGradient id="linear-gradient-5" x1="235.11" y1="35.08" x2="216.09" y2="16.05" xlink:href="#linear-gradient"/>
    <linearGradient id="linear-gradient-6" x1="264.04" y1="33.8" x2="240.69" y2="10.44" xlink:href="#linear-gradient"/>
    <linearGradient id="linear-gradient-7" x1="299.94" y1="32.79" x2="274.27" y2="7.12" xlink:href="#linear-gradient"/>
    <linearGradient id="linear-gradient-8" x1="324.14" y1="37.58" x2="294.86" y2="8.3" xlink:href="#linear-gradient"/>
    <linearGradient id="linear-gradient-9" x1="342.4" y1="31.9" x2="319.53" y2="9.02" xlink:href="#linear-gradient"/>
    <linearGradient id="linear-gradient-10" x1="360.76" y1="38.02" x2="337.07" y2="14.33" xlink:href="#linear-gradient"/>
    <linearGradient id="linear-gradient-11" x1="393.01" y1="31.84" x2="369.27" y2="8.1" xlink:href="#linear-gradient"/>
    <linearGradient id="linear-gradient-12" x1="411.83" y1="38.02" x2="388.14" y2="14.33" xlink:href="#linear-gradient"/>
    <linearGradient id="linear-gradient-13" x1="434.1" y1="33.75" x2="409.81" y2="9.46" xlink:href="#linear-gradient"/>
    <linearGradient id="linear-gradient-14" x1="450.53" y1="35.08" x2="431.51" y2="16.05" xlink:href="#linear-gradient"/>
    <linearGradient id="linear-gradient-15" x1="469.29" y1="32.59" x2="451.51" y2="14.81" xlink:href="#linear-gradient"/>
    <linearGradient id="linear-gradient-16" x1="493.96" y1="38.02" x2="470.27" y2="14.33" xlink:href="#linear-gradient"/>
    <linearGradient id="linear-gradient-17" x1="516.98" y1="37.61" x2="495.98" y2="16.61" xlink:href="#linear-gradient"/>
    <linearGradient id="linear-gradient-18" x1="538.31" y1="33.75" x2="514.02" y2="9.46" xlink:href="#linear-gradient"/>
    <linearGradient id="linear-gradient-19" x1="551.59" y1="31.9" x2="528.71" y2="9.02" xlink:href="#linear-gradient"/>
    <linearGradient id="linear-gradient-20" x1="567.64" y1="35.13" x2="548.45" y2="15.94" xlink:href="#linear-gradient"/>
    <linearGradient id="linear-gradient-21" x1="593.12" y1="38.02" x2="569.43" y2="14.33" xlink:href="#linear-gradient"/>
    <linearGradient id="linear-gradient-22" x1="616.15" y1="37.61" x2="595.15" y2="16.61" xlink:href="#linear-gradient"/>
    <linearGradient id="linear-gradient-23" x1="634.41" y1="31.63" x2="611.08" y2="8.3" xlink:href="#linear-gradient"/>
    <linearGradient id="linear-gradient-24" x1="318.47" y1="99.1" x2="275.84" y2="56.46" xlink:href="#linear-gradient"/>
    <linearGradient id="linear-gradient-25" x1="358.57" y1="100.79" x2="320.07" y2="62.29" xlink:href="#linear-gradient"/>
    <linearGradient id="linear-gradient-26" x1="417.53" y1="100.79" x2="379.03" y2="62.29" xlink:href="#linear-gradient"/>
    <linearGradient id="linear-gradient-27" x1="460.31" y1="99.1" x2="417.67" y2="56.46" xlink:href="#linear-gradient"/>
    <linearGradient id="linear-gradient-28" x1="492.22" y1="95.89" x2="456.61" y2="60.28" xlink:href="#linear-gradient"/>
    <linearGradient id="linear-gradient-29" x1="0" y1="58.16" x2="100" y2="58.16" xlink:href="#linear-gradient"/>
  </defs>
  <g id="Layer_1-2" data-name="Layer 1">
    <g>
      <g>
        <g>
          <path class="cls-20" d="m146.11,39.98c-2.98,0-5.3-.49-6.98-1.46-1.68-.98-2.86-2.4-3.53-4.27s-1.01-4.17-1.01-6.89V.53h8.5v28.13c0,.8.06,1.6.19,2.4s.41,1.46.84,1.97c.43.51,1.1.77,1.99.77s1.6-.26,2.02-.77c.42-.51.68-1.17.79-1.97.11-.8.17-1.6.17-2.4V.53h8.54v26.83c0,2.72-.34,5.02-1.03,6.89-.69,1.87-1.86,3.3-3.53,4.27-1.66.98-3.98,1.46-6.96,1.46Z"/>
          <path class="cls-1" d="m162.67,39.41V11.66h7.82v2.78c1.02-1.02,2.09-1.82,3.19-2.4,1.1-.58,2.26-.86,3.48-.86,1.15,0,2.1.28,2.86.84.75.56,1.32,1.33,1.7,2.3.38.98.58,2.09.58,3.34v21.74h-7.78v-20.64c0-.67-.11-1.18-.34-1.54-.22-.35-.64-.53-1.25-.53-.32,0-.7.09-1.13.26-.43.18-.87.42-1.32.74v21.7h-7.82Z"/>
          <path class="cls-19" d="m187.01,6.96V1.54h7.87v5.42h-7.87Zm.05,32.45V11.66h7.82v27.74h-7.82Z"/>
          <path class="cls-25" d="m208.42,39.7c-2.08,0-3.68-.3-4.8-.91-1.12-.61-1.9-1.5-2.33-2.66-.43-1.17-.65-2.58-.65-4.25v-15.07h-2.69v-5.14h2.69V3.22h7.92v8.45h3.94v5.14h-3.94v14.3c0,.8.23,1.38.7,1.73.46.35,1.05.53,1.75.53.42,0,.8-.02,1.15-.07.35-.05.67-.09.96-.12v6.14c-.42.06-1.07.14-1.97.24-.9.1-1.81.14-2.74.14Z"/>
          <path class="cls-14" d="m225.65,39.89c-2.02,0-3.74-.36-5.18-1.08-1.44-.72-2.54-1.78-3.31-3.17-.77-1.39-1.15-3.06-1.15-5.02v-10.18c0-1.98.38-3.66,1.15-5.04s1.88-2.42,3.34-3.14c1.46-.72,3.18-1.08,5.16-1.08s3.75.35,5.11,1.06c1.36.7,2.38,1.74,3.07,3.12.69,1.38,1.03,3.07,1.03,5.09v5.57h-11.14v5.33c0,.71.08,1.28.24,1.73.16.45.38.77.67.96.29.19.62.29,1.01.29s.73-.09,1.03-.26.54-.46.72-.84c.18-.38.26-.91.26-1.58v-2.93h7.2v2.69c0,2.82-.82,4.94-2.45,6.36-1.63,1.42-3.89,2.14-6.77,2.14Zm-1.92-17.52h3.94v-2.78c0-.74-.09-1.31-.26-1.73-.18-.42-.42-.7-.72-.86s-.66-.24-1.08-.24c-.38,0-.71.1-.98.29-.27.19-.49.52-.65.98-.16.46-.24,1.13-.24,1.99v2.35Z"/>
          <path class="cls-8" d="m245.13,39.89c-2.05,0-3.63-.72-4.75-2.16-1.12-1.44-1.68-3.57-1.68-6.38v-11.47c0-1.73.24-3.24.72-4.54s1.2-2.31,2.16-3.05c.96-.74,2.14-1.1,3.55-1.1,1.02,0,2,.2,2.93.6.93.4,1.78.94,2.54,1.61V.53h7.82v38.88h-7.82v-2.16c-.86.83-1.76,1.48-2.69,1.94-.93.46-1.86.7-2.78.7Zm3.41-4.99c.26,0,.57-.06.94-.19.37-.13.74-.3,1.13-.53v-17.52c-.32-.16-.66-.3-1.01-.43-.35-.13-.69-.19-1.01-.19-.7,0-1.22.3-1.54.89-.32.59-.48,1.3-.48,2.14v12.77c0,.58.06,1.1.19,1.56.13.46.34.83.62,1.1.29.27.67.41,1.15.41Z"/>
          <path class="cls-15" d="m287.13,39.98c-2.94,0-5.27-.54-6.98-1.61-1.71-1.07-2.92-2.58-3.62-4.51-.7-1.94-1.06-4.22-1.06-6.84v-14.02c0-2.69.35-5,1.06-6.94.7-1.94,1.91-3.43,3.62-4.49,1.71-1.06,4.04-1.58,6.98-1.58s5.13.47,6.74,1.42c1.62.94,2.76,2.26,3.43,3.96.67,1.7,1.01,3.65,1.01,5.86v3.36h-8.4v-3.89c0-.77-.04-1.5-.12-2.21-.08-.7-.31-1.29-.7-1.75-.38-.46-1.04-.7-1.97-.7s-1.56.24-1.99.72c-.43.48-.7,1.08-.82,1.8-.11.72-.17,1.48-.17,2.28v18.29c0,.86.07,1.66.22,2.38.14.72.43,1.3.86,1.73.43.43,1.06.65,1.9.65.9,0,1.54-.23,1.92-.7.38-.46.62-1.06.72-1.8.1-.74.14-1.49.14-2.26v-4.08h8.4v3.36c0,2.21-.33,4.18-.98,5.93-.66,1.75-1.79,3.12-3.41,4.13-1.62,1.01-3.88,1.51-6.79,1.51Z"/>
          <path class="cls-26" d="m302.64,39.41V.53h7.78v13.58c1.02-1.02,2.1-1.77,3.22-2.23,1.12-.46,2.32-.7,3.6-.7,1.12,0,2.06.28,2.81.84.75.56,1.32,1.33,1.7,2.3.38.98.58,2.09.58,3.34v21.74h-7.78v-20.64c0-.67-.11-1.18-.34-1.54-.22-.35-.64-.53-1.25-.53-.32,0-.7.09-1.15.26-.45.18-.91.42-1.39.74v21.7h-7.78Z"/>
          <path class="cls-17" d="m327.02,6.96V1.54h7.87v5.42h-7.87Zm.05,32.45V11.66h7.82v27.74h-7.82Z"/>
          <path class="cls-10" d="m339.74,39.41V11.66h7.82v2.78c1.02-1.02,2.09-1.82,3.19-2.4,1.1-.58,2.26-.86,3.48-.86,1.15,0,2.1.28,2.86.84.75.56,1.32,1.33,1.7,2.3.38.98.58,2.09.58,3.34v21.74h-7.78v-20.64c0-.67-.11-1.18-.34-1.54-.22-.35-.64-.53-1.25-.53-.32,0-.7.09-1.13.26-.43.18-.87.42-1.32.74v21.7h-7.82Z"/>
          <path class="cls-9" d="m376.84,39.41V.53h8.59v38.88h-8.59Z"/>
          <path class="cls-27" d="m390.81,39.41V11.66h7.82v2.78c1.02-1.02,2.09-1.82,3.19-2.4,1.1-.58,2.26-.86,3.48-.86,1.15,0,2.1.28,2.86.84s1.32,1.33,1.7,2.3c.38.98.58,2.09.58,3.34v21.74h-7.78v-20.64c0-.67-.11-1.18-.34-1.54-.22-.35-.64-.53-1.25-.53-.32,0-.7.09-1.13.26-.43.18-.87.42-1.32.74v21.7h-7.82Z"/>
          <path class="cls-28" d="m423.83,39.7c-2.08,0-3.68-.3-4.8-.91-1.12-.61-1.9-1.5-2.33-2.66-.43-1.17-.65-2.58-.65-4.25v-15.07h-2.69v-5.14h2.69V3.22h7.92v8.45h3.94v5.14h-3.94v14.3c0,.8.23,1.38.7,1.73.46.35,1.05.53,1.75.53.42,0,.8-.02,1.15-.07.35-.05.67-.09.96-.12v6.14c-.42.06-1.07.14-1.97.24-.9.1-1.81.14-2.74.14Z"/>
          <path class="cls-6" d="m441.07,39.89c-2.02,0-3.74-.36-5.18-1.08-1.44-.72-2.54-1.78-3.31-3.17-.77-1.39-1.15-3.06-1.15-5.02v-10.18c0-1.98.38-3.66,1.15-5.04.77-1.38,1.88-2.42,3.34-3.14,1.46-.72,3.17-1.08,5.16-1.08s3.75.35,5.11,1.06c1.36.7,2.38,1.74,3.07,3.12.69,1.38,1.03,3.07,1.03,5.09v5.57h-11.14v5.33c0,.71.08,1.28.24,1.73s.38.77.67.96.62.29,1.01.29.73-.09,1.03-.26c.3-.18.54-.46.72-.84.17-.38.26-.91.26-1.58v-2.93h7.2v2.69c0,2.82-.82,4.94-2.45,6.36-1.63,1.42-3.89,2.14-6.77,2.14Zm-1.92-17.52h3.94v-2.78c0-.74-.09-1.31-.26-1.73-.18-.42-.42-.7-.72-.86-.3-.16-.66-.24-1.08-.24-.38,0-.71.1-.98.29-.27.19-.49.52-.65.98s-.24,1.13-.24,1.99v2.35Z"/>
          <path class="cls-3" d="m454.65,39.41V11.66h7.82v4.61c.9-1.6,1.79-2.82,2.69-3.67s1.98-1.27,3.26-1.27c.26,0,.48,0,.67.02.19.02.37.06.53.12v7.78c-.35-.16-.74-.29-1.18-.41-.43-.11-.89-.17-1.37-.17-.9,0-1.73.24-2.5.72-.77.48-1.47,1.14-2.11,1.97v18.05h-7.82Z"/>
          <path class="cls-11" d="m472.94,39.41V11.66h7.82v2.78c1.02-1.02,2.09-1.82,3.19-2.4,1.1-.58,2.26-.86,3.48-.86,1.15,0,2.1.28,2.86.84s1.32,1.33,1.7,2.3c.38.98.58,2.09.58,3.34v21.74h-7.78v-20.64c0-.67-.11-1.18-.34-1.54-.22-.35-.64-.53-1.25-.53-.32,0-.7.09-1.13.26-.43.18-.87.42-1.32.74v21.7h-7.82Z"/>
          <path class="cls-2" d="m502.22,39.89c-1.41,0-2.59-.34-3.55-1.01s-1.68-1.53-2.16-2.57c-.48-1.04-.72-2.1-.72-3.19,0-1.73.34-3.18,1.03-4.37.69-1.18,1.59-2.18,2.71-2.98s2.35-1.48,3.7-2.04c1.34-.56,2.67-1.06,3.98-1.51v-2.78c0-.48-.05-.9-.14-1.27-.1-.37-.26-.66-.48-.86s-.56-.31-1.01-.31-.79.1-1.03.29c-.24.19-.41.46-.5.79s-.16.71-.19,1.13l-.19,2.02-7.3-.29c.16-3.33,1.05-5.78,2.66-7.37,1.62-1.58,4.04-2.38,7.27-2.38,2.82,0,4.92.78,6.31,2.33,1.39,1.55,2.09,3.56,2.09,6.02v12.96c0,1.15.02,2.16.07,3.02.05.86.11,1.62.19,2.26.08.64.15,1.18.22,1.63h-7.01c-.1-.74-.21-1.54-.34-2.4-.13-.86-.22-1.38-.29-1.54-.32,1.15-.92,2.18-1.8,3.07-.88.9-2.06,1.34-3.53,1.34Zm2.78-5.28c.32,0,.62-.06.89-.19.27-.13.52-.3.74-.53s.42-.45.58-.67v-7.58c-.64.38-1.23.78-1.78,1.18-.54.4-1.01.84-1.39,1.32-.38.48-.68,1-.89,1.56-.21.56-.31,1.19-.31,1.9,0,.93.19,1.66.58,2.21.38.54.91.82,1.58.82Z"/>
          <path class="cls-4" d="m528.04,39.7c-2.08,0-3.68-.3-4.8-.91-1.12-.61-1.9-1.5-2.33-2.66-.43-1.17-.65-2.58-.65-4.25v-15.07h-2.69v-5.14h2.69V3.22h7.92v8.45h3.94v5.14h-3.94v14.3c0,.8.23,1.38.7,1.73.46.35,1.05.53,1.75.53.42,0,.8-.02,1.15-.07.35-.05.67-.09.96-.12v6.14c-.42.06-1.07.14-1.97.24-.9.1-1.81.14-2.74.14Z"/>
          <path class="cls-24" d="m536.2,6.96V1.54h7.87v5.42h-7.87Zm.05,32.45V11.66h7.82v27.74h-7.82Z"/>
          <path class="cls-7" d="m558.04,39.89c-1.98,0-3.71-.34-5.16-1.01-1.46-.67-2.58-1.68-3.36-3.02-.78-1.34-1.18-3.02-1.18-5.04v-10.56c0-2.02.39-3.7,1.18-5.04.78-1.34,1.9-2.35,3.36-3.02,1.46-.67,3.18-1.01,5.16-1.01s3.7.34,5.16,1.01,2.58,1.68,3.38,3.02c.8,1.34,1.2,3.02,1.2,5.04v10.56c0,2.02-.4,3.7-1.2,5.04-.8,1.34-1.93,2.35-3.38,3.02s-3.18,1.01-5.16,1.01Zm.05-5.18c.51,0,.91-.14,1.2-.41.29-.27.49-.66.6-1.15.11-.5.17-1.1.17-1.8v-11.62c0-.7-.06-1.3-.17-1.8-.11-.5-.31-.88-.6-1.15-.29-.27-.69-.41-1.2-.41s-.91.14-1.2.41c-.29.27-.5.66-.62,1.15-.13.5-.19,1.1-.19,1.8v11.62c0,.71.06,1.3.19,1.8s.34.88.62,1.15c.29.27.69.41,1.2.41Z"/>
          <path class="cls-12" d="m572.1,39.41V11.66h7.82v2.78c1.02-1.02,2.09-1.82,3.19-2.4,1.1-.58,2.26-.86,3.48-.86,1.15,0,2.1.28,2.86.84s1.32,1.33,1.7,2.3c.38.98.58,2.09.58,3.34v21.74h-7.78v-20.64c0-.67-.11-1.18-.34-1.54-.22-.35-.64-.53-1.25-.53-.32,0-.7.09-1.13.26-.43.18-.87.42-1.32.74v21.7h-7.82Z"/>
          <path class="cls-18" d="m601.38,39.89c-1.41,0-2.59-.34-3.55-1.01s-1.68-1.53-2.16-2.57c-.48-1.04-.72-2.1-.72-3.19,0-1.73.34-3.18,1.03-4.37.69-1.18,1.59-2.18,2.71-2.98s2.35-1.48,3.7-2.04c1.34-.56,2.67-1.06,3.98-1.51v-2.78c0-.48-.05-.9-.14-1.27-.1-.37-.26-.66-.48-.86s-.56-.31-1.01-.31-.79.1-1.03.29c-.24.19-.41.46-.5.79s-.16.71-.19,1.13l-.19,2.02-7.3-.29c.16-3.33,1.05-5.78,2.66-7.37,1.62-1.58,4.04-2.38,7.27-2.38,2.82,0,4.92.78,6.31,2.33,1.39,1.55,2.09,3.56,2.09,6.02v12.96c0,1.15.02,2.16.07,3.02.05.86.11,1.62.19,2.26.08.64.15,1.18.22,1.63h-7.01c-.1-.74-.21-1.54-.34-2.4-.13-.86-.22-1.38-.29-1.54-.32,1.15-.92,2.18-1.8,3.07-.88.9-2.06,1.34-3.53,1.34Zm2.78-5.28c.32,0,.62-.06.89-.19.27-.13.52-.3.74-.53s.42-.45.58-.67v-7.58c-.64.38-1.23.78-1.78,1.18-.54.4-1.01.84-1.39,1.32-.38.48-.68,1-.89,1.56-.21.56-.31,1.19-.31,1.9,0,.93.19,1.66.58,2.21.38.54.91.82,1.58.82Z"/>
          <path class="cls-23" d="m618.86,39.41V.53h7.78v38.88h-7.78Z"/>
        </g>
        <g>
          <path class="cls-16" d="m297.17,111.59c-4.46,0-7.96-.73-10.48-2.2s-4.28-3.6-5.29-6.41c-1.01-2.81-1.51-6.25-1.51-10.33v-40.25h12.74v42.19c0,1.2.1,2.4.29,3.6.19,1.2.61,2.19,1.26,2.95.65.77,1.64,1.15,2.99,1.15s2.4-.38,3.02-1.15c.62-.77,1.02-1.75,1.19-2.95.17-1.2.25-2.4.25-3.6v-42.19h12.82v40.25c0,4.08-.52,7.52-1.55,10.33-1.03,2.81-2.8,4.94-5.29,6.41-2.5,1.46-5.98,2.2-10.44,2.2Z"/>
          <path class="cls-13" d="m339.36,111.59c-4.42,0-7.91-.8-10.48-2.41-2.57-1.61-4.38-3.86-5.44-6.77-1.06-2.9-1.58-6.32-1.58-10.26v-21.02c0-4.03.53-7.5,1.58-10.4,1.06-2.9,2.87-5.15,5.44-6.73,2.57-1.58,6.06-2.38,10.48-2.38s7.69.71,10.12,2.12c2.42,1.42,4.14,3.4,5.15,5.94,1.01,2.54,1.51,5.47,1.51,8.78v5.04h-12.6v-5.83c0-1.15-.06-2.26-.18-3.31-.12-1.05-.47-1.93-1.04-2.63-.58-.7-1.56-1.04-2.95-1.04s-2.34.36-2.99,1.08-1.06,1.62-1.22,2.7c-.17,1.08-.25,2.22-.25,3.42v27.43c0,1.3.11,2.48.32,3.56.22,1.08.65,1.94,1.3,2.59s1.6.97,2.84.97c1.34,0,2.3-.35,2.88-1.04.58-.7.94-1.59,1.08-2.7.14-1.1.22-2.23.22-3.38v-6.12h12.6v5.04c0,3.31-.49,6.28-1.48,8.89-.98,2.62-2.69,4.68-5.11,6.19-2.42,1.51-5.82,2.27-10.19,2.27Z"/>
          <path class="cls-29" d="m398.33,111.59c-4.42,0-7.91-.8-10.48-2.41-2.57-1.61-4.38-3.86-5.44-6.77-1.06-2.9-1.58-6.32-1.58-10.26v-21.02c0-4.03.53-7.5,1.58-10.4,1.05-2.9,2.87-5.15,5.44-6.73,2.57-1.58,6.06-2.38,10.48-2.38s7.69.71,10.12,2.12c2.42,1.42,4.14,3.4,5.15,5.94,1.01,2.54,1.51,5.47,1.51,8.78v5.04h-12.6v-5.83c0-1.15-.06-2.26-.18-3.31-.12-1.05-.47-1.93-1.04-2.63-.58-.7-1.56-1.04-2.95-1.04s-2.34.36-2.99,1.08c-.65.72-1.06,1.62-1.22,2.7s-.25,2.22-.25,3.42v27.43c0,1.3.11,2.48.32,3.56s.65,1.94,1.3,2.59c.65.65,1.6.97,2.84.97,1.34,0,2.3-.35,2.88-1.04.58-.7.94-1.59,1.08-2.7.14-1.1.22-2.23.22-3.38v-6.12h12.6v5.04c0,3.31-.49,6.28-1.48,8.89-.98,2.62-2.69,4.68-5.11,6.19-2.42,1.51-5.82,2.27-10.19,2.27Z"/>
          <path class="cls-21" d="m439.01,111.59c-4.46,0-7.96-.73-10.48-2.2-2.52-1.46-4.28-3.6-5.29-6.41-1.01-2.81-1.51-6.25-1.51-10.33v-40.25h12.74v42.19c0,1.2.1,2.4.29,3.6.19,1.2.61,2.19,1.26,2.95.65.77,1.64,1.15,2.99,1.15s2.4-.38,3.02-1.15c.62-.77,1.02-1.75,1.19-2.95.17-1.2.25-2.4.25-3.6v-42.19h12.82v40.25c0,4.08-.52,7.52-1.55,10.33-1.03,2.81-2.8,4.94-5.29,6.41-2.5,1.46-5.98,2.2-10.44,2.2Z"/>
          <path class="cls-5" d="m464.49,110.72v-58.32h19.58c3.5,0,6.38.66,8.64,1.98,2.26,1.32,3.94,3.24,5.04,5.76,1.1,2.52,1.66,5.58,1.66,9.18,0,4.51-.75,7.96-2.23,10.33-1.49,2.38-3.5,4.02-6.05,4.93-2.54.91-5.4,1.37-8.57,1.37h-5.18v24.77h-12.89Zm12.89-33.77h4.32c1.58,0,2.78-.29,3.6-.86.82-.58,1.36-1.44,1.62-2.59.26-1.15.4-2.62.4-4.39,0-1.49-.11-2.8-.32-3.92-.22-1.13-.73-2.03-1.55-2.7-.82-.67-2.09-1.01-3.82-1.01h-4.25v15.48Z"/>
        </g>
      </g>
      <path class="cls-22" d="m100,9.48c0,16.76-.01,33.52,0,50.27v1.2c-.42,19.88-21.3,46.65-50,46.7-28.7-.05-49.58-26.82-50-46.7v-1.2C.01,42.99,0,26.24,0,9.48v-.8h27.6s9.51.4,16.29,9.18c4.86,6.29,5.95,9.31,6.11,11.74.16-2.43,1.26-5.45,6.11-11.74,6.79-8.78,16.29-9.18,16.29-9.18h27.6v.8Z"/>
    </g>
  </g>
</svg>